<?xml version="1.0" encoding="utf-8" standalone="no"?>
<!DOCTYPE svg PUBLIC "-//W3C//DTD SVG 1.1//EN"
  "http://www.w3.org/Graphics/SVG/1.1/DTD/svg11.dtd">
<svg xmlns:xlink="http://www.w3.org/1999/xlink" width="558.506836pt" height="332.605859pt" viewBox="0 0 558.506836 332.605859" xmlns="http://www.w3.org/2000/svg" version="1.1">
 <metadata>
  <rdf:RDF xmlns:dc="http://purl.org/dc/elements/1.1/" xmlns:cc="http://creativecommons.org/ns#" xmlns:rdf="http://www.w3.org/1999/02/22-rdf-syntax-ns#">
   <cc:Work>
    <dc:type rdf:resource="http://purl.org/dc/dcmitype/StillImage"/>
    <dc:date>2026-09-24T14:22:05.822947</dc:date>
    <dc:format>image/svg+xml</dc:format>
    <dc:creator>
     <cc:Agent>
      <dc:title>Matplotlib v3.11.2, https://matplotlib.org/</dc:title>
     </cc:Agent>
    </dc:creator>
   </cc:Work>
  </rdf:RDF>
 </metadata>
 <defs>
  <style type="text/css">*{stroke-linejoin: round; stroke-linecap: butt}</style>
 </defs>
 <g id="figure_1">
  <g id="patch_1">
   <path d="M 0 332.605859 
L 558.506836 332.605859 
L 558.506836 0 
L 0 0 
z
" style="fill: #ffffff"/>
  </g>
  <g id="axes_1">
   <g id="patch_2">
    <path d="M 49.106836 299.136328 
L 551.306836 299.136328 
L 551.306836 21.936328 
L 49.106836 21.936328 
z
" style="fill: #ffffff"/>
   </g>
   <g id="matplotlib.axis_1">
    <g id="xtick_1">
     <g id="line2d_1">
      <path d="M 71.934109 299.136328 
L 71.934109 21.936328 
" clip-path="url(#p821bd742af)" style="fill: none; stroke: #cccccc; stroke-width: 0.8; stroke-linecap: round"/>
     </g>
     <g id="line2d_2"/>
     <g id="text_1">
      <!-- 15m -->
      <g style="fill: #262626" transform="translate(62.208327 309.916602) scale(0.1 -0.1)">
       <defs>
        <path id="ArialMT-14" d="M 2384 0 
L 1822 0 
L 1822 3584 
Q 1619 3391 1289 3197 
Q 959 3003 697 2906 
L 697 3450 
Q 1169 3672 1522 3987 
Q 1875 4303 2022 4600 
L 2384 4600 
L 2384 0 
z
" transform="scale(0.015625)"/>
        <path id="ArialMT-18" d="M 266 1200 
L 856 1250 
Q 922 819 1161 601 
Q 1400 384 1738 384 
Q 2144 384 2425 690 
Q 2706 997 2706 1503 
Q 2706 1984 2436 2262 
Q 2166 2541 1728 2541 
Q 1456 2541 1237 2417 
Q 1019 2294 894 2097 
L 366 2166 
L 809 4519 
L 3088 4519 
L 3088 3981 
L 1259 3981 
L 1013 2750 
Q 1425 3038 1878 3038 
Q 2478 3038 2890 2622 
Q 3303 2206 3303 1553 
Q 3303 931 2941 478 
Q 2500 -78 1738 -78 
Q 1113 -78 717 272 
Q 322 622 266 1200 
z
" transform="scale(0.015625)"/>
        <path id="ArialMT-50" d="M 422 0 
L 422 3319 
L 925 3319 
L 925 2853 
Q 1081 3097 1340 3245 
Q 1600 3394 1931 3394 
Q 2300 3394 2536 3241 
Q 2772 3088 2869 2813 
Q 3263 3394 3894 3394 
Q 4388 3394 4653 3120 
Q 4919 2847 4919 2278 
L 4919 0 
L 4359 0 
L 4359 2091 
Q 4359 2428 4304 2576 
Q 4250 2725 4106 2815 
Q 3963 2906 3769 2906 
Q 3419 2906 3187 2673 
Q 2956 2441 2956 1928 
L 2956 0 
L 2394 0 
L 2394 2156 
Q 2394 2531 2256 2718 
Q 2119 2906 1806 2906 
Q 1569 2906 1367 2781 
Q 1166 2656 1075 2415 
Q 984 2175 984 1722 
L 984 0 
L 422 0 
z
" transform="scale(0.015625)"/>
       </defs>
       <use xlink:href="#ArialMT-14"/>
       <use xlink:href="#ArialMT-18" transform="translate(55.609375 0)"/>
       <use xlink:href="#ArialMT-50" transform="translate(111.21875 0)"/>
      </g>
     </g>
    </g>
    <g id="xtick_2">
     <g id="line2d_3">
      <path d="M 137.154888 299.136328 
L 137.154888 21.936328 
" clip-path="url(#p821bd742af)" style="fill: none; stroke: #cccccc; stroke-width: 0.8; stroke-linecap: round"/>
     </g>
     <g id="line2d_4"/>
     <g id="text_2">
      <!-- 30m -->
      <g style="fill: #262626" transform="translate(127.429107 309.916602) scale(0.1 -0.1)">
       <defs>
        <path id="ArialMT-16" d="M 269 1209 
L 831 1284 
Q 928 806 1161 595 
Q 1394 384 1728 384 
Q 2125 384 2398 659 
Q 2672 934 2672 1341 
Q 2672 1728 2419 1979 
Q 2166 2231 1775 2231 
Q 1616 2231 1378 2169 
L 1441 2663 
Q 1497 2656 1531 2656 
Q 1891 2656 2178 2843 
Q 2466 3031 2466 3422 
Q 2466 3731 2256 3934 
Q 2047 4138 1716 4138 
Q 1388 4138 1169 3931 
Q 950 3725 888 3313 
L 325 3413 
Q 428 3978 793 4289 
Q 1159 4600 1703 4600 
Q 2078 4600 2393 4439 
Q 2709 4278 2876 4000 
Q 3044 3722 3044 3409 
Q 3044 3113 2884 2869 
Q 2725 2625 2413 2481 
Q 2819 2388 3044 2092 
Q 3269 1797 3269 1353 
Q 3269 753 2831 336 
Q 2394 -81 1725 -81 
Q 1122 -81 723 278 
Q 325 638 269 1209 
z
" transform="scale(0.015625)"/>
        <path id="ArialMT-13" d="M 266 2259 
Q 266 3072 433 3567 
Q 600 4063 929 4331 
Q 1259 4600 1759 4600 
Q 2128 4600 2406 4451 
Q 2684 4303 2865 4023 
Q 3047 3744 3150 3342 
Q 3253 2941 3253 2259 
Q 3253 1453 3087 958 
Q 2922 463 2592 192 
Q 2263 -78 1759 -78 
Q 1097 -78 719 397 
Q 266 969 266 2259 
z
M 844 2259 
Q 844 1131 1108 757 
Q 1372 384 1759 384 
Q 2147 384 2411 759 
Q 2675 1134 2675 2259 
Q 2675 3391 2411 3762 
Q 2147 4134 1753 4134 
Q 1366 4134 1134 3806 
Q 844 3388 844 2259 
z
" transform="scale(0.015625)"/>
       </defs>
       <use xlink:href="#ArialMT-16"/>
       <use xlink:href="#ArialMT-13" transform="translate(55.609375 0)"/>
       <use xlink:href="#ArialMT-50" transform="translate(111.21875 0)"/>
      </g>
     </g>
    </g>
    <g id="xtick_3">
     <g id="line2d_5">
      <path d="M 202.375667 299.136328 
L 202.375667 21.936328 
" clip-path="url(#p821bd742af)" style="fill: none; stroke: #cccccc; stroke-width: 0.8; stroke-linecap: round"/>
     </g>
     <g id="line2d_6"/>
     <g id="text_3">
      <!-- 1h -->
      <g style="fill: #262626" transform="translate(196.81473 309.916602) scale(0.1 -0.1)">
       <defs>
        <path id="ArialMT-4b" d="M 422 0 
L 422 4581 
L 984 4581 
L 984 2938 
Q 1378 3394 1978 3394 
Q 2347 3394 2619 3248 
Q 2891 3103 3008 2847 
Q 3125 2591 3125 2103 
L 3125 0 
L 2563 0 
L 2563 2103 
Q 2563 2525 2380 2717 
Q 2197 2909 1863 2909 
Q 1613 2909 1392 2779 
Q 1172 2650 1078 2428 
Q 984 2206 984 1816 
L 984 0 
L 422 0 
z
" transform="scale(0.015625)"/>
       </defs>
       <use xlink:href="#ArialMT-14"/>
       <use xlink:href="#ArialMT-4b" transform="translate(55.609375 0)"/>
      </g>
     </g>
    </g>
    <g id="xtick_4">
     <g id="line2d_7">
      <path d="M 267.596446 299.136328 
L 267.596446 21.936328 
" clip-path="url(#p821bd742af)" style="fill: none; stroke: #cccccc; stroke-width: 0.8; stroke-linecap: round"/>
     </g>
     <g id="line2d_8"/>
     <g id="text_4">
      <!-- 2h -->
      <g style="fill: #262626" transform="translate(262.035509 309.916602) scale(0.1 -0.1)">
       <defs>
        <path id="ArialMT-15" d="M 3222 541 
L 3222 0 
L 194 0 
Q 188 203 259 391 
Q 375 700 629 1000 
Q 884 1300 1366 1694 
Q 2113 2306 2375 2664 
Q 2638 3022 2638 3341 
Q 2638 3675 2398 3904 
Q 2159 4134 1775 4134 
Q 1369 4134 1125 3890 
Q 881 3647 878 3216 
L 300 3275 
Q 359 3922 746 4261 
Q 1134 4600 1788 4600 
Q 2447 4600 2831 4234 
Q 3216 3869 3216 3328 
Q 3216 3053 3103 2787 
Q 2991 2522 2730 2228 
Q 2469 1934 1863 1422 
Q 1356 997 1212 845 
Q 1069 694 975 541 
L 3222 541 
z
" transform="scale(0.015625)"/>
       </defs>
       <use xlink:href="#ArialMT-15"/>
       <use xlink:href="#ArialMT-4b" transform="translate(55.609375 0)"/>
      </g>
     </g>
    </g>
    <g id="xtick_5">
     <g id="line2d_9">
      <path d="M 332.817226 299.136328 
L 332.817226 21.936328 
" clip-path="url(#p821bd742af)" style="fill: none; stroke: #cccccc; stroke-width: 0.8; stroke-linecap: round"/>
     </g>
     <g id="line2d_10"/>
     <g id="text_5">
      <!-- 4h -->
      <g style="fill: #262626" transform="translate(327.256288 309.916602) scale(0.1 -0.1)">
       <defs>
        <path id="ArialMT-17" d="M 2069 0 
L 2069 1097 
L 81 1097 
L 81 1613 
L 2172 4581 
L 2631 4581 
L 2631 1613 
L 3250 1613 
L 3250 1097 
L 2631 1097 
L 2631 0 
L 2069 0 
z
M 2069 1613 
L 2069 3678 
L 634 1613 
L 2069 1613 
z
" transform="scale(0.015625)"/>
       </defs>
       <use xlink:href="#ArialMT-17"/>
       <use xlink:href="#ArialMT-4b" transform="translate(55.609375 0)"/>
      </g>
     </g>
    </g>
    <g id="xtick_6">
     <g id="line2d_11">
      <path d="M 398.038005 299.136328 
L 398.038005 21.936328 
" clip-path="url(#p821bd742af)" style="fill: none; stroke: #cccccc; stroke-width: 0.8; stroke-linecap: round"/>
     </g>
     <g id="line2d_12"/>
     <g id="text_6">
      <!-- 8h -->
      <g style="fill: #262626" transform="translate(392.477067 309.916602) scale(0.1 -0.1)">
       <defs>
        <path id="ArialMT-1b" d="M 1131 2484 
Q 781 2613 612 2850 
Q 444 3088 444 3419 
Q 444 3919 803 4259 
Q 1163 4600 1759 4600 
Q 2359 4600 2725 4251 
Q 3091 3903 3091 3403 
Q 3091 3084 2923 2848 
Q 2756 2613 2416 2484 
Q 2838 2347 3058 2040 
Q 3278 1734 3278 1309 
Q 3278 722 2862 322 
Q 2447 -78 1769 -78 
Q 1091 -78 675 323 
Q 259 725 259 1325 
Q 259 1772 486 2073 
Q 713 2375 1131 2484 
z
M 1019 3438 
Q 1019 3113 1228 2906 
Q 1438 2700 1772 2700 
Q 2097 2700 2305 2904 
Q 2513 3109 2513 3406 
Q 2513 3716 2298 3927 
Q 2084 4138 1766 4138 
Q 1444 4138 1231 3931 
Q 1019 3725 1019 3438 
z
M 838 1322 
Q 838 1081 952 856 
Q 1066 631 1291 507 
Q 1516 384 1775 384 
Q 2178 384 2440 643 
Q 2703 903 2703 1303 
Q 2703 1709 2433 1975 
Q 2163 2241 1756 2241 
Q 1359 2241 1098 1978 
Q 838 1716 838 1322 
z
" transform="scale(0.015625)"/>
       </defs>
       <use xlink:href="#ArialMT-1b"/>
       <use xlink:href="#ArialMT-4b" transform="translate(55.609375 0)"/>
      </g>
     </g>
    </g>
    <g id="xtick_7">
     <g id="line2d_13">
      <path d="M 463.258784 299.136328 
L 463.258784 21.936328 
" clip-path="url(#p821bd742af)" style="fill: none; stroke: #cccccc; stroke-width: 0.8; stroke-linecap: round"/>
     </g>
     <g id="line2d_14"/>
     <g id="text_7">
      <!-- 12h -->
      <g style="fill: #262626" transform="translate(454.917378 309.916602) scale(0.1 -0.1)">
       <use xlink:href="#ArialMT-14"/>
       <use xlink:href="#ArialMT-15" transform="translate(55.609375 0)"/>
       <use xlink:href="#ArialMT-4b" transform="translate(111.21875 0)"/>
      </g>
     </g>
    </g>
    <g id="xtick_8">
     <g id="line2d_15">
      <path d="M 528.479563 299.136328 
L 528.479563 21.936328 
" clip-path="url(#p821bd742af)" style="fill: none; stroke: #cccccc; stroke-width: 0.8; stroke-linecap: round"/>
     </g>
     <g id="line2d_16"/>
     <g id="text_8">
      <!-- 24h -->
      <g style="fill: #262626" transform="translate(520.138157 309.916602) scale(0.1 -0.1)">
       <use xlink:href="#ArialMT-15"/>
       <use xlink:href="#ArialMT-17" transform="translate(55.609375 0)"/>
       <use xlink:href="#ArialMT-4b" transform="translate(111.21875 0)"/>
      </g>
     </g>
    </g>
    <g id="text_9">
     <!-- Horizon -->
     <g style="fill: #262626" transform="translate(281.599023 323.301367) scale(0.1 -0.1)">
      <defs>
       <path id="Arial-BoldMT-2b" d="M 469 0 
L 469 4581 
L 1394 4581 
L 1394 2778 
L 3206 2778 
L 3206 4581 
L 4131 4581 
L 4131 0 
L 3206 0 
L 3206 2003 
L 1394 2003 
L 1394 0 
L 469 0 
z
" transform="scale(0.015625)"/>
       <path id="Arial-BoldMT-52" d="M 256 1706 
Q 256 2144 472 2553 
Q 688 2963 1083 3178 
Q 1478 3394 1966 3394 
Q 2719 3394 3200 2905 
Q 3681 2416 3681 1669 
Q 3681 916 3195 420 
Q 2709 -75 1972 -75 
Q 1516 -75 1102 131 
Q 688 338 472 736 
Q 256 1134 256 1706 
z
M 1156 1659 
Q 1156 1166 1390 903 
Q 1625 641 1969 641 
Q 2313 641 2545 903 
Q 2778 1166 2778 1666 
Q 2778 2153 2545 2415 
Q 2313 2678 1969 2678 
Q 1625 2678 1390 2415 
Q 1156 2153 1156 1659 
z
" transform="scale(0.015625)"/>
       <path id="Arial-BoldMT-55" d="M 1300 0 
L 422 0 
L 422 3319 
L 1238 3319 
L 1238 2847 
Q 1447 3181 1614 3287 
Q 1781 3394 1994 3394 
Q 2294 3394 2572 3228 
L 2300 2463 
Q 2078 2606 1888 2606 
Q 1703 2606 1575 2504 
Q 1447 2403 1373 2137 
Q 1300 1872 1300 1025 
L 1300 0 
z
" transform="scale(0.015625)"/>
       <path id="Arial-BoldMT-4c" d="M 459 3769 
L 459 4581 
L 1338 4581 
L 1338 3769 
L 459 3769 
z
M 459 0 
L 459 3319 
L 1338 3319 
L 1338 0 
L 459 0 
z
" transform="scale(0.015625)"/>
       <path id="Arial-BoldMT-5d" d="M 106 0 
L 106 684 
L 1350 2113 
Q 1656 2463 1803 2609 
Q 1650 2600 1400 2597 
L 228 2591 
L 228 3319 
L 2972 3319 
L 2972 2697 
L 1703 1234 
L 1256 750 
Q 1622 772 1709 772 
L 3069 772 
L 3069 0 
L 106 0 
z
" transform="scale(0.015625)"/>
       <path id="Arial-BoldMT-51" d="M 3478 0 
L 2600 0 
L 2600 1694 
Q 2600 2231 2544 2389 
Q 2488 2547 2361 2634 
Q 2234 2722 2056 2722 
Q 1828 2722 1647 2597 
Q 1466 2472 1398 2265 
Q 1331 2059 1331 1503 
L 1331 0 
L 453 0 
L 453 3319 
L 1269 3319 
L 1269 2831 
Q 1703 3394 2363 3394 
Q 2653 3394 2893 3289 
Q 3134 3184 3257 3021 
Q 3381 2859 3429 2653 
Q 3478 2447 3478 2063 
L 3478 0 
z
" transform="scale(0.015625)"/>
      </defs>
      <use xlink:href="#Arial-BoldMT-2b"/>
      <use xlink:href="#Arial-BoldMT-52" transform="translate(72.21875 0)"/>
      <use xlink:href="#Arial-BoldMT-55" transform="translate(133.296875 0)"/>
      <use xlink:href="#Arial-BoldMT-4c" transform="translate(172.21875 0)"/>
      <use xlink:href="#Arial-BoldMT-5d" transform="translate(200 0)"/>
      <use xlink:href="#Arial-BoldMT-52" transform="translate(250 0)"/>
      <use xlink:href="#Arial-BoldMT-51" transform="translate(311.078125 0)"/>
     </g>
    </g>
   </g>
   <g id="matplotlib.axis_2">
    <g id="ytick_1">
     <g id="line2d_17">
      <path d="M 49.106836 286.824658 
L 551.306836 286.824658 
" clip-path="url(#p821bd742af)" style="fill: none; stroke: #cccccc; stroke-width: 0.8; stroke-linecap: round"/>
     </g>
     <g id="line2d_18"/>
     <g id="text_10">
      <!-- 0.000 -->
      <g style="fill: #262626" transform="translate(20.584961 290.464794) scale(0.1 -0.1)">
       <defs>
        <path id="ArialMT-11" d="M 581 0 
L 581 641 
L 1222 641 
L 1222 0 
L 581 0 
z
" transform="scale(0.015625)"/>
       </defs>
       <use xlink:href="#ArialMT-13"/>
       <use xlink:href="#ArialMT-11" transform="translate(55.609375 0)"/>
       <use xlink:href="#ArialMT-13" transform="translate(83.390625 0)"/>
       <use xlink:href="#ArialMT-13" transform="translate(139 0)"/>
       <use xlink:href="#ArialMT-13" transform="translate(194.609375 0)"/>
      </g>
     </g>
    </g>
    <g id="ytick_2">
     <g id="line2d_19">
      <path d="M 49.106836 250.783468 
L 551.306836 250.783468 
" clip-path="url(#p821bd742af)" style="fill: none; stroke: #cccccc; stroke-width: 0.8; stroke-linecap: round"/>
     </g>
     <g id="line2d_20"/>
     <g id="text_11">
      <!-- 0.025 -->
      <g style="fill: #262626" transform="translate(20.584961 254.423604) scale(0.1 -0.1)">
       <use xlink:href="#ArialMT-13"/>
       <use xlink:href="#ArialMT-11" transform="translate(55.609375 0)"/>
       <use xlink:href="#ArialMT-13" transform="translate(83.390625 0)"/>
       <use xlink:href="#ArialMT-15" transform="translate(139 0)"/>
       <use xlink:href="#ArialMT-18" transform="translate(194.609375 0)"/>
      </g>
     </g>
    </g>
    <g id="ytick_3">
     <g id="line2d_21">
      <path d="M 49.106836 214.742278 
L 551.306836 214.742278 
" clip-path="url(#p821bd742af)" style="fill: none; stroke: #cccccc; stroke-width: 0.8; stroke-linecap: round"/>
     </g>
     <g id="line2d_22"/>
     <g id="text_12">
      <!-- 0.050 -->
      <g style="fill: #262626" transform="translate(20.584961 218.382415) scale(0.1 -0.1)">
       <use xlink:href="#ArialMT-13"/>
       <use xlink:href="#ArialMT-11" transform="translate(55.609375 0)"/>
       <use xlink:href="#ArialMT-13" transform="translate(83.390625 0)"/>
       <use xlink:href="#ArialMT-18" transform="translate(139 0)"/>
       <use xlink:href="#ArialMT-13" transform="translate(194.609375 0)"/>
      </g>
     </g>
    </g>
    <g id="ytick_4">
     <g id="line2d_23">
      <path d="M 49.106836 178.701088 
L 551.306836 178.701088 
" clip-path="url(#p821bd742af)" style="fill: none; stroke: #cccccc; stroke-width: 0.8; stroke-linecap: round"/>
     </g>
     <g id="line2d_24"/>
     <g id="text_13">
      <!-- 0.075 -->
      <g style="fill: #262626" transform="translate(20.584961 182.341225) scale(0.1 -0.1)">
       <defs>
        <path id="ArialMT-1a" d="M 303 3981 
L 303 4522 
L 3269 4522 
L 3269 4084 
Q 2831 3619 2401 2847 
Q 1972 2075 1738 1259 
Q 1569 684 1522 0 
L 944 0 
Q 953 541 1156 1306 
Q 1359 2072 1739 2783 
Q 2119 3494 2547 3981 
L 303 3981 
z
" transform="scale(0.015625)"/>
       </defs>
       <use xlink:href="#ArialMT-13"/>
       <use xlink:href="#ArialMT-11" transform="translate(55.609375 0)"/>
       <use xlink:href="#ArialMT-13" transform="translate(83.390625 0)"/>
       <use xlink:href="#ArialMT-1a" transform="translate(139 0)"/>
       <use xlink:href="#ArialMT-18" transform="translate(194.609375 0)"/>
      </g>
     </g>
    </g>
    <g id="ytick_5">
     <g id="line2d_25">
      <path d="M 49.106836 142.659898 
L 551.306836 142.659898 
" clip-path="url(#p821bd742af)" style="fill: none; stroke: #cccccc; stroke-width: 0.8; stroke-linecap: round"/>
     </g>
     <g id="line2d_26"/>
     <g id="text_14">
      <!-- 0.100 -->
      <g style="fill: #262626" transform="translate(20.584961 146.300035) scale(0.1 -0.1)">
       <use xlink:href="#ArialMT-13"/>
       <use xlink:href="#ArialMT-11" transform="translate(55.609375 0)"/>
       <use xlink:href="#ArialMT-14" transform="translate(83.390625 0)"/>
       <use xlink:href="#ArialMT-13" transform="translate(139 0)"/>
       <use xlink:href="#ArialMT-13" transform="translate(194.609375 0)"/>
      </g>
     </g>
    </g>
    <g id="ytick_6">
     <g id="line2d_27">
      <path d="M 49.106836 106.618708 
L 551.306836 106.618708 
" clip-path="url(#p821bd742af)" style="fill: none; stroke: #cccccc; stroke-width: 0.8; stroke-linecap: round"/>
     </g>
     <g id="line2d_28"/>
     <g id="text_15">
      <!-- 0.125 -->
      <g style="fill: #262626" transform="translate(20.584961 110.258845) scale(0.1 -0.1)">
       <use xlink:href="#ArialMT-13"/>
       <use xlink:href="#ArialMT-11" transform="translate(55.609375 0)"/>
       <use xlink:href="#ArialMT-14" transform="translate(83.390625 0)"/>
       <use xlink:href="#ArialMT-15" transform="translate(139 0)"/>
       <use xlink:href="#ArialMT-18" transform="translate(194.609375 0)"/>
      </g>
     </g>
    </g>
    <g id="ytick_7">
     <g id="line2d_29">
      <path d="M 49.106836 70.577518 
L 551.306836 70.577518 
" clip-path="url(#p821bd742af)" style="fill: none; stroke: #cccccc; stroke-width: 0.8; stroke-linecap: round"/>
     </g>
     <g id="line2d_30"/>
     <g id="text_16">
      <!-- 0.150 -->
      <g style="fill: #262626" transform="translate(20.584961 74.217655) scale(0.1 -0.1)">
       <use xlink:href="#ArialMT-13"/>
       <use xlink:href="#ArialMT-11" transform="translate(55.609375 0)"/>
       <use xlink:href="#ArialMT-14" transform="translate(83.390625 0)"/>
       <use xlink:href="#ArialMT-18" transform="translate(139 0)"/>
       <use xlink:href="#ArialMT-13" transform="translate(194.609375 0)"/>
      </g>
     </g>
    </g>
    <g id="ytick_8">
     <g id="line2d_31">
      <path d="M 49.106836 34.536328 
L 551.306836 34.536328 
" clip-path="url(#p821bd742af)" style="fill: none; stroke: #cccccc; stroke-width: 0.8; stroke-linecap: round"/>
     </g>
     <g id="line2d_32"/>
     <g id="text_17">
      <!-- 0.175 -->
      <g style="fill: #262626" transform="translate(20.584961 38.176465) scale(0.1 -0.1)">
       <use xlink:href="#ArialMT-13"/>
       <use xlink:href="#ArialMT-11" transform="translate(55.609375 0)"/>
       <use xlink:href="#ArialMT-14" transform="translate(83.390625 0)"/>
       <use xlink:href="#ArialMT-1a" transform="translate(139 0)"/>
       <use xlink:href="#ArialMT-18" transform="translate(194.609375 0)"/>
      </g>
     </g>
    </g>
    <g id="text_18">
     <!-- Absolute Log Return -->
     <g style="fill: #262626" transform="translate(14.480273 209.973828) rotate(-90) scale(0.1 -0.1)">
      <defs>
       <path id="Arial-BoldMT-24" d="M 4597 0 
L 3591 0 
L 3191 1041 
L 1359 1041 
L 981 0 
L 0 0 
L 1784 4581 
L 2763 4581 
L 4597 0 
z
M 2894 1813 
L 2263 3513 
L 1644 1813 
L 2894 1813 
z
" transform="scale(0.015625)"/>
       <path id="Arial-BoldMT-45" d="M 422 0 
L 422 4581 
L 1300 4581 
L 1300 2931 
Q 1706 3394 2263 3394 
Q 2869 3394 3266 2955 
Q 3663 2516 3663 1694 
Q 3663 844 3258 384 
Q 2853 -75 2275 -75 
Q 1991 -75 1714 67 
Q 1438 209 1238 488 
L 1238 0 
L 422 0 
z
M 1294 1731 
Q 1294 1216 1456 969 
Q 1684 619 2063 619 
Q 2353 619 2558 867 
Q 2763 1116 2763 1650 
Q 2763 2219 2556 2470 
Q 2350 2722 2028 2722 
Q 1713 2722 1503 2476 
Q 1294 2231 1294 1731 
z
" transform="scale(0.015625)"/>
       <path id="Arial-BoldMT-56" d="M 150 947 
L 1031 1081 
Q 1088 825 1259 692 
Q 1431 559 1741 559 
Q 2081 559 2253 684 
Q 2369 772 2369 919 
Q 2369 1019 2306 1084 
Q 2241 1147 2013 1200 
Q 950 1434 666 1628 
Q 272 1897 272 2375 
Q 272 2806 612 3100 
Q 953 3394 1669 3394 
Q 2350 3394 2681 3172 
Q 3013 2950 3138 2516 
L 2309 2363 
Q 2256 2556 2107 2659 
Q 1959 2763 1684 2763 
Q 1338 2763 1188 2666 
Q 1088 2597 1088 2488 
Q 1088 2394 1175 2328 
Q 1294 2241 1995 2081 
Q 2697 1922 2975 1691 
Q 3250 1456 3250 1038 
Q 3250 581 2869 253 
Q 2488 -75 1741 -75 
Q 1063 -75 667 200 
Q 272 475 150 947 
z
" transform="scale(0.015625)"/>
       <path id="Arial-BoldMT-4f" d="M 459 0 
L 459 4581 
L 1338 4581 
L 1338 0 
L 459 0 
z
" transform="scale(0.015625)"/>
       <path id="Arial-BoldMT-58" d="M 2644 0 
L 2644 497 
Q 2463 231 2167 78 
Q 1872 -75 1544 -75 
Q 1209 -75 943 72 
Q 678 219 559 484 
Q 441 750 441 1219 
L 441 3319 
L 1319 3319 
L 1319 1794 
Q 1319 1094 1367 936 
Q 1416 778 1544 686 
Q 1672 594 1869 594 
Q 2094 594 2272 717 
Q 2450 841 2515 1023 
Q 2581 1206 2581 1919 
L 2581 3319 
L 3459 3319 
L 3459 0 
L 2644 0 
z
" transform="scale(0.015625)"/>
       <path id="Arial-BoldMT-57" d="M 1981 3319 
L 1981 2619 
L 1381 2619 
L 1381 1281 
Q 1381 875 1398 808 
Q 1416 741 1477 697 
Q 1538 653 1625 653 
Q 1747 653 1978 738 
L 2053 56 
Q 1747 -75 1359 -75 
Q 1122 -75 931 4 
Q 741 84 652 211 
Q 563 338 528 553 
Q 500 706 500 1172 
L 500 2619 
L 97 2619 
L 97 3319 
L 500 3319 
L 500 3978 
L 1381 4491 
L 1381 3319 
L 1981 3319 
z
" transform="scale(0.015625)"/>
       <path id="Arial-BoldMT-48" d="M 2381 1056 
L 3256 909 
Q 3088 428 2723 176 
Q 2359 -75 1813 -75 
Q 947 -75 531 491 
Q 203 944 203 1634 
Q 203 2459 634 2926 
Q 1066 3394 1725 3394 
Q 2466 3394 2894 2905 
Q 3322 2416 3303 1406 
L 1103 1406 
Q 1113 1016 1316 798 
Q 1519 581 1822 581 
Q 2028 581 2168 693 
Q 2309 806 2381 1056 
z
M 2431 1944 
Q 2422 2325 2234 2523 
Q 2047 2722 1778 2722 
Q 1491 2722 1303 2513 
Q 1116 2303 1119 1944 
L 2431 1944 
z
" transform="scale(0.015625)"/>
       <path id="Arial-BoldMT-3" transform="scale(0.015625)"/>
       <path id="Arial-BoldMT-2f" d="M 491 0 
L 491 4544 
L 1416 4544 
L 1416 772 
L 3716 772 
L 3716 0 
L 491 0 
z
" transform="scale(0.015625)"/>
       <path id="Arial-BoldMT-4a" d="M 378 -219 
L 1381 -341 
Q 1406 -516 1497 -581 
Q 1622 -675 1891 -675 
Q 2234 -675 2406 -572 
Q 2522 -503 2581 -350 
Q 2622 -241 2622 53 
L 2622 538 
Q 2228 0 1628 0 
Q 959 0 569 566 
Q 263 1013 263 1678 
Q 263 2513 664 2953 
Q 1066 3394 1663 3394 
Q 2278 3394 2678 2853 
L 2678 3319 
L 3500 3319 
L 3500 341 
Q 3500 -247 3403 -537 
Q 3306 -828 3131 -993 
Q 2956 -1159 2664 -1253 
Q 2372 -1347 1925 -1347 
Q 1081 -1347 728 -1058 
Q 375 -769 375 -325 
Q 375 -281 378 -219 
z
M 1163 1728 
Q 1163 1200 1367 954 
Q 1572 709 1872 709 
Q 2194 709 2416 961 
Q 2638 1213 2638 1706 
Q 2638 2222 2425 2472 
Q 2213 2722 1888 2722 
Q 1572 2722 1367 2476 
Q 1163 2231 1163 1728 
z
" transform="scale(0.015625)"/>
       <path id="Arial-BoldMT-35" d="M 469 0 
L 469 4581 
L 2416 4581 
Q 3150 4581 3483 4457 
Q 3816 4334 4016 4018 
Q 4216 3703 4216 3297 
Q 4216 2781 3912 2445 
Q 3609 2109 3006 2022 
Q 3306 1847 3501 1637 
Q 3697 1428 4028 894 
L 4588 0 
L 3481 0 
L 2813 997 
Q 2456 1531 2325 1670 
Q 2194 1809 2047 1861 
Q 1900 1913 1581 1913 
L 1394 1913 
L 1394 0 
L 469 0 
z
M 1394 2644 
L 2078 2644 
Q 2744 2644 2909 2700 
Q 3075 2756 3169 2893 
Q 3263 3031 3263 3238 
Q 3263 3469 3139 3611 
Q 3016 3753 2791 3791 
Q 2678 3806 2116 3806 
L 1394 3806 
L 1394 2644 
z
" transform="scale(0.015625)"/>
      </defs>
      <use xlink:href="#Arial-BoldMT-24"/>
      <use xlink:href="#Arial-BoldMT-45" transform="translate(72.21875 0)"/>
      <use xlink:href="#Arial-BoldMT-56" transform="translate(133.296875 0)"/>
      <use xlink:href="#Arial-BoldMT-52" transform="translate(188.90625 0)"/>
      <use xlink:href="#Arial-BoldMT-4f" transform="translate(249.984375 0)"/>
      <use xlink:href="#Arial-BoldMT-58" transform="translate(277.765625 0)"/>
      <use xlink:href="#Arial-BoldMT-57" transform="translate(338.84375 0)"/>
      <use xlink:href="#Arial-BoldMT-48" transform="translate(372.140625 0)"/>
      <use xlink:href="#Arial-BoldMT-3" transform="translate(427.75 0)"/>
      <use xlink:href="#Arial-BoldMT-2f" transform="translate(455.53125 0)"/>
      <use xlink:href="#Arial-BoldMT-52" transform="translate(516.609375 0)"/>
      <use xlink:href="#Arial-BoldMT-4a" transform="translate(577.6875 0)"/>
      <use xlink:href="#Arial-BoldMT-3" transform="translate(638.765625 0)"/>
      <use xlink:href="#Arial-BoldMT-35" transform="translate(666.546875 0)"/>
      <use xlink:href="#Arial-BoldMT-48" transform="translate(738.765625 0)"/>
      <use xlink:href="#Arial-BoldMT-57" transform="translate(794.375 0)"/>
      <use xlink:href="#Arial-BoldMT-58" transform="translate(827.671875 0)"/>
      <use xlink:href="#Arial-BoldMT-55" transform="translate(888.75 0)"/>
      <use xlink:href="#Arial-BoldMT-51" transform="translate(927.671875 0)"/>
     </g>
    </g>
   </g>
   <g id="FillBetweenPolyCollection_1">
    <defs>
     <path id="me7fabec66f" d="M 71.934109 -57.314383 
L 71.934109 -46.069531 
L 137.154888 -46.502026 
L 202.375667 -47.222849 
L 267.596446 -48.376167 
L 332.817226 -50.106145 
L 398.038005 -52.98944 
L 463.258784 -55.872735 
L 528.479563 -61.639325 
L 528.479563 -298.069531 
L 528.479563 -298.069531 
L 463.258784 -218.778913 
L 398.038005 -178.412781 
L 332.817226 -132.280058 
L 267.596446 -100.56381 
L 202.375667 -80.380744 
L 137.154888 -65.964268 
L 71.934109 -57.314383 
z
" style="stroke: #ff7f0e; stroke-opacity: 0.15"/>
    </defs>
    <g clip-path="url(#p821bd742af)">
     <use xlink:href="#me7fabec66f" x="0" y="332.605859" style="fill: #ff7f0e; fill-opacity: 0.15; stroke: #ff7f0e; stroke-opacity: 0.15"/>
    </g>
   </g>
   <g id="FillBetweenPolyCollection_2">
    <defs>
     <path id="m152a03861e" d="M 71.934109 -50.826968 
L 71.934109 -46.069531 
L 137.154888 -46.502026 
L 202.375667 -47.222849 
L 267.596446 -48.376167 
L 332.817226 -50.106145 
L 398.038005 -52.98944 
L 463.258784 -55.872735 
L 528.479563 -61.639325 
L 528.479563 -158.229714 
L 528.479563 -158.229714 
L 463.258784 -120.746877 
L 398.038005 -103.447106 
L 332.817226 -81.822392 
L 267.596446 -68.847563 
L 202.375667 -60.197678 
L 137.154888 -54.431087 
L 71.934109 -50.826968 
z
" style="stroke: #ff7f0e; stroke-opacity: 0.3"/>
    </defs>
    <g clip-path="url(#p821bd742af)">
     <use xlink:href="#m152a03861e" x="0" y="332.605859" style="fill: #ff7f0e; fill-opacity: 0.3; stroke: #ff7f0e; stroke-opacity: 0.3"/>
    </g>
   </g>
   <g id="line2d_33">
    <path d="M 71.934109 285.38301 
L 137.154888 284.229692 
L 202.375667 282.499715 
L 267.596446 279.61642 
L 332.817226 275.291477 
L 398.038005 268.083239 
L 463.258784 262.316648 
L 528.479563 249.34182 
" clip-path="url(#p821bd742af)" style="fill: none; stroke: #d62728; stroke-width: 1.5; stroke-linecap: round"/>
    <defs>
     <path id="me2942d8f59" d="M -3 3 
L 3 3 
L 3 -3 
L -3 -3 
z
" style="stroke: #d62728; stroke-linejoin: miter"/>
    </defs>
    <g clip-path="url(#p821bd742af)">
     <use xlink:href="#me2942d8f59" x="71.934109" y="285.38301" style="fill: #d62728; stroke: #d62728; stroke-linejoin: miter"/>
     <use xlink:href="#me2942d8f59" x="137.154888" y="284.229692" style="fill: #d62728; stroke: #d62728; stroke-linejoin: miter"/>
     <use xlink:href="#me2942d8f59" x="202.375667" y="282.499715" style="fill: #d62728; stroke: #d62728; stroke-linejoin: miter"/>
     <use xlink:href="#me2942d8f59" x="267.596446" y="279.61642" style="fill: #d62728; stroke: #d62728; stroke-linejoin: miter"/>
     <use xlink:href="#me2942d8f59" x="332.817226" y="275.291477" style="fill: #d62728; stroke: #d62728; stroke-linejoin: miter"/>
     <use xlink:href="#me2942d8f59" x="398.038005" y="268.083239" style="fill: #d62728; stroke: #d62728; stroke-linejoin: miter"/>
     <use xlink:href="#me2942d8f59" x="463.258784" y="262.316648" style="fill: #d62728; stroke: #d62728; stroke-linejoin: miter"/>
     <use xlink:href="#me2942d8f59" x="528.479563" y="249.34182" style="fill: #d62728; stroke: #d62728; stroke-linejoin: miter"/>
    </g>
   </g>
   <g id="patch_3">
    <path d="M 49.106836 299.136328 
L 49.106836 21.936328 
" style="fill: none; stroke: #cccccc; stroke-linejoin: miter; stroke-linecap: square"/>
   </g>
   <g id="patch_4">
    <path d="M 551.306836 299.136328 
L 551.306836 21.936328 
" style="fill: none; stroke: #cccccc; stroke-linejoin: miter; stroke-linecap: square"/>
   </g>
   <g id="patch_5">
    <path d="M 49.106836 299.136328 
L 551.306836 299.136328 
" style="fill: none; stroke: #cccccc; stroke-linejoin: miter; stroke-linecap: square"/>
   </g>
   <g id="patch_6">
    <path d="M 49.106836 21.936328 
L 551.306836 21.936328 
" style="fill: none; stroke: #cccccc; stroke-linejoin: miter; stroke-linecap: square"/>
   </g>
   <g id="text_19">
    <!-- Absolute Return Move Fan Chart: P10 to P99 Quantiles -->
    <g style="fill: #262626" transform="translate(143.857148 15.936328) scale(0.12 -0.12)">
     <defs>
      <path id="Arial-BoldMT-30" d="M 453 0 
L 453 4581 
L 1838 4581 
L 2669 1456 
L 3491 4581 
L 4878 4581 
L 4878 0 
L 4019 0 
L 4019 3606 
L 3109 0 
L 2219 0 
L 1313 3606 
L 1313 0 
L 453 0 
z
" transform="scale(0.015625)"/>
      <path id="Arial-BoldMT-59" d="M 1372 0 
L 34 3319 
L 956 3319 
L 1581 1625 
L 1763 1059 
Q 1834 1275 1853 1344 
Q 1897 1484 1947 1625 
L 2578 3319 
L 3481 3319 
L 2163 0 
L 1372 0 
z
" transform="scale(0.015625)"/>
      <path id="Arial-BoldMT-29" d="M 472 0 
L 472 4581 
L 3613 4581 
L 3613 3806 
L 1397 3806 
L 1397 2722 
L 3309 2722 
L 3309 1947 
L 1397 1947 
L 1397 0 
L 472 0 
z
" transform="scale(0.015625)"/>
      <path id="Arial-BoldMT-44" d="M 1116 2306 
L 319 2450 
Q 453 2931 781 3162 
Q 1109 3394 1756 3394 
Q 2344 3394 2631 3255 
Q 2919 3116 3036 2902 
Q 3153 2688 3153 2116 
L 3144 1091 
Q 3144 653 3186 445 
Q 3228 238 3344 0 
L 2475 0 
Q 2441 88 2391 259 
Q 2369 338 2359 363 
Q 2134 144 1878 34 
Q 1622 -75 1331 -75 
Q 819 -75 523 203 
Q 228 481 228 906 
Q 228 1188 362 1408 
Q 497 1628 739 1745 
Q 981 1863 1438 1950 
Q 2053 2066 2291 2166 
L 2291 2253 
Q 2291 2506 2166 2614 
Q 2041 2722 1694 2722 
Q 1459 2722 1328 2630 
Q 1197 2538 1116 2306 
z
M 2291 1594 
Q 2122 1538 1756 1459 
Q 1391 1381 1278 1306 
Q 1106 1184 1106 997 
Q 1106 813 1243 678 
Q 1381 544 1594 544 
Q 1831 544 2047 700 
Q 2206 819 2256 991 
Q 2291 1103 2291 1419 
L 2291 1594 
z
" transform="scale(0.015625)"/>
      <path id="Arial-BoldMT-26" d="M 3397 1684 
L 4294 1400 
Q 4088 650 3608 286 
Q 3128 -78 2391 -78 
Q 1478 -78 890 545 
Q 303 1169 303 2250 
Q 303 3394 893 4026 
Q 1484 4659 2447 4659 
Q 3288 4659 3813 4163 
Q 4125 3869 4281 3319 
L 3366 3100 
Q 3284 3456 3026 3662 
Q 2769 3869 2400 3869 
Q 1891 3869 1573 3503 
Q 1256 3138 1256 2319 
Q 1256 1450 1568 1081 
Q 1881 713 2381 713 
Q 2750 713 3015 947 
Q 3281 1181 3397 1684 
z
" transform="scale(0.015625)"/>
      <path id="Arial-BoldMT-4b" d="M 1334 4581 
L 1334 2897 
Q 1759 3394 2350 3394 
Q 2653 3394 2897 3281 
Q 3141 3169 3264 2994 
Q 3388 2819 3433 2606 
Q 3478 2394 3478 1947 
L 3478 0 
L 2600 0 
L 2600 1753 
Q 2600 2275 2550 2415 
Q 2500 2556 2373 2639 
Q 2247 2722 2056 2722 
Q 1838 2722 1666 2615 
Q 1494 2509 1414 2295 
Q 1334 2081 1334 1663 
L 1334 0 
L 456 0 
L 456 4581 
L 1334 4581 
z
" transform="scale(0.015625)"/>
      <path id="Arial-BoldMT-1d" d="M 628 2441 
L 628 3319 
L 1506 3319 
L 1506 2441 
L 628 2441 
z
M 628 0 
L 628 878 
L 1506 878 
L 1506 0 
L 628 0 
z
" transform="scale(0.015625)"/>
      <path id="Arial-BoldMT-33" d="M 466 0 
L 466 4581 
L 1950 4581 
Q 2794 4581 3050 4513 
Q 3444 4409 3709 4064 
Q 3975 3719 3975 3172 
Q 3975 2750 3822 2462 
Q 3669 2175 3433 2011 
Q 3197 1847 2953 1794 
Q 2622 1728 1994 1728 
L 1391 1728 
L 1391 0 
L 466 0 
z
M 1391 3806 
L 1391 2506 
L 1897 2506 
Q 2444 2506 2628 2578 
Q 2813 2650 2917 2803 
Q 3022 2956 3022 3159 
Q 3022 3409 2875 3571 
Q 2728 3734 2503 3775 
Q 2338 3806 1838 3806 
L 1391 3806 
z
" transform="scale(0.015625)"/>
      <path id="Arial-BoldMT-14" d="M 2519 0 
L 1641 0 
L 1641 3309 
Q 1159 2859 506 2644 
L 506 3441 
Q 850 3553 1253 3867 
Q 1656 4181 1806 4600 
L 2519 4600 
L 2519 0 
z
" transform="scale(0.015625)"/>
      <path id="Arial-BoldMT-13" d="M 1756 4600 
Q 2422 4600 2797 4125 
Q 3244 3563 3244 2259 
Q 3244 959 2794 391 
Q 2422 -78 1756 -78 
Q 1088 -78 678 436 
Q 269 950 269 2269 
Q 269 3563 719 4131 
Q 1091 4600 1756 4600 
z
M 1756 3872 
Q 1597 3872 1472 3770 
Q 1347 3669 1278 3406 
Q 1188 3066 1188 2259 
Q 1188 1453 1269 1151 
Q 1350 850 1473 750 
Q 1597 650 1756 650 
Q 1916 650 2041 751 
Q 2166 853 2234 1116 
Q 2325 1453 2325 2259 
Q 2325 3066 2244 3367 
Q 2163 3669 2039 3770 
Q 1916 3872 1756 3872 
z
" transform="scale(0.015625)"/>
      <path id="Arial-BoldMT-1c" d="M 291 1059 
L 1141 1153 
Q 1172 894 1303 769 
Q 1434 644 1650 644 
Q 1922 644 2112 894 
Q 2303 1144 2356 1931 
Q 2025 1547 1528 1547 
Q 988 1547 595 1964 
Q 203 2381 203 3050 
Q 203 3747 617 4173 
Q 1031 4600 1672 4600 
Q 2369 4600 2816 4061 
Q 3263 3522 3263 2288 
Q 3263 1031 2797 475 
Q 2331 -81 1584 -81 
Q 1047 -81 715 205 
Q 384 491 291 1059 
z
M 2278 2978 
Q 2278 3403 2083 3637 
Q 1888 3872 1631 3872 
Q 1388 3872 1227 3680 
Q 1066 3488 1066 3050 
Q 1066 2606 1241 2398 
Q 1416 2191 1678 2191 
Q 1931 2191 2104 2391 
Q 2278 2591 2278 2978 
z
" transform="scale(0.015625)"/>
      <path id="Arial-BoldMT-34" d="M 4153 581 
Q 4494 338 4894 194 
L 4553 -459 
Q 4344 -397 4144 -288 
Q 4100 -266 3528 119 
Q 3078 -78 2531 -78 
Q 1475 -78 876 544 
Q 278 1166 278 2291 
Q 278 3413 878 4036 
Q 1478 4659 2506 4659 
Q 3525 4659 4122 4036 
Q 4719 3413 4719 2291 
Q 4719 1697 4553 1247 
Q 4428 903 4153 581 
z
M 3409 1103 
Q 3588 1313 3677 1609 
Q 3766 1906 3766 2291 
Q 3766 3084 3416 3476 
Q 3066 3869 2500 3869 
Q 1934 3869 1582 3475 
Q 1231 3081 1231 2291 
Q 1231 1488 1582 1089 
Q 1934 691 2472 691 
Q 2672 691 2850 756 
Q 2569 941 2278 1044 
L 2538 1572 
Q 2994 1416 3409 1103 
z
" transform="scale(0.015625)"/>
     </defs>
     <use xlink:href="#Arial-BoldMT-24"/>
     <use xlink:href="#Arial-BoldMT-45" transform="translate(72.21875 0)"/>
     <use xlink:href="#Arial-BoldMT-56" transform="translate(133.296875 0)"/>
     <use xlink:href="#Arial-BoldMT-52" transform="translate(188.90625 0)"/>
     <use xlink:href="#Arial-BoldMT-4f" transform="translate(249.984375 0)"/>
     <use xlink:href="#Arial-BoldMT-58" transform="translate(277.765625 0)"/>
     <use xlink:href="#Arial-BoldMT-57" transform="translate(338.84375 0)"/>
     <use xlink:href="#Arial-BoldMT-48" transform="translate(372.140625 0)"/>
     <use xlink:href="#Arial-BoldMT-3" transform="translate(427.75 0)"/>
     <use xlink:href="#Arial-BoldMT-35" transform="translate(455.53125 0)"/>
     <use xlink:href="#Arial-BoldMT-48" transform="translate(527.75 0)"/>
     <use xlink:href="#Arial-BoldMT-57" transform="translate(583.359375 0)"/>
     <use xlink:href="#Arial-BoldMT-58" transform="translate(616.65625 0)"/>
     <use xlink:href="#Arial-BoldMT-55" transform="translate(677.734375 0)"/>
     <use xlink:href="#Arial-BoldMT-51" transform="translate(716.65625 0)"/>
     <use xlink:href="#Arial-BoldMT-3" transform="translate(777.734375 0)"/>
     <use xlink:href="#Arial-BoldMT-30" transform="translate(805.515625 0)"/>
     <use xlink:href="#Arial-BoldMT-52" transform="translate(888.8125 0)"/>
     <use xlink:href="#Arial-BoldMT-59" transform="translate(949.890625 0)"/>
     <use xlink:href="#Arial-BoldMT-48" transform="translate(1005.5 0)"/>
     <use xlink:href="#Arial-BoldMT-3" transform="translate(1061.109375 0)"/>
     <use xlink:href="#Arial-BoldMT-29" transform="translate(1088.890625 0)"/>
     <use xlink:href="#Arial-BoldMT-44" transform="translate(1149.96875 0)"/>
     <use xlink:href="#Arial-BoldMT-51" transform="translate(1205.578125 0)"/>
     <use xlink:href="#Arial-BoldMT-3" transform="translate(1266.65625 0)"/>
     <use xlink:href="#Arial-BoldMT-26" transform="translate(1294.4375 0)"/>
     <use xlink:href="#Arial-BoldMT-4b" transform="translate(1366.65625 0)"/>
     <use xlink:href="#Arial-BoldMT-44" transform="translate(1427.734375 0)"/>
     <use xlink:href="#Arial-BoldMT-55" transform="translate(1483.34375 0)"/>
     <use xlink:href="#Arial-BoldMT-57" transform="translate(1522.265625 0)"/>
     <use xlink:href="#Arial-BoldMT-1d" transform="translate(1555.5625 0)"/>
     <use xlink:href="#Arial-BoldMT-3" transform="translate(1588.859375 0)"/>
     <use xlink:href="#Arial-BoldMT-33" transform="translate(1616.640625 0)"/>
     <use xlink:href="#Arial-BoldMT-14" transform="translate(1683.34375 0)"/>
     <use xlink:href="#Arial-BoldMT-13" transform="translate(1738.953125 0)"/>
     <use xlink:href="#Arial-BoldMT-3" transform="translate(1794.5625 0)"/>
     <use xlink:href="#Arial-BoldMT-57" transform="translate(1822.34375 0)"/>
     <use xlink:href="#Arial-BoldMT-52" transform="translate(1855.640625 0)"/>
     <use xlink:href="#Arial-BoldMT-3" transform="translate(1916.71875 0)"/>
     <use xlink:href="#Arial-BoldMT-33" transform="translate(1944.5 0)"/>
     <use xlink:href="#Arial-BoldMT-1c" transform="translate(2011.203125 0)"/>
     <use xlink:href="#Arial-BoldMT-1c" transform="translate(2066.8125 0)"/>
     <use xlink:href="#Arial-BoldMT-3" transform="translate(2122.421875 0)"/>
     <use xlink:href="#Arial-BoldMT-34" transform="translate(2150.203125 0)"/>
     <use xlink:href="#Arial-BoldMT-58" transform="translate(2227.984375 0)"/>
     <use xlink:href="#Arial-BoldMT-44" transform="translate(2289.0625 0)"/>
     <use xlink:href="#Arial-BoldMT-51" transform="translate(2344.671875 0)"/>
     <use xlink:href="#Arial-BoldMT-57" transform="translate(2405.75 0)"/>
     <use xlink:href="#Arial-BoldMT-4c" transform="translate(2439.046875 0)"/>
     <use xlink:href="#Arial-BoldMT-4f" transform="translate(2466.828125 0)"/>
     <use xlink:href="#Arial-BoldMT-48" transform="translate(2494.609375 0)"/>
     <use xlink:href="#Arial-BoldMT-56" transform="translate(2550.21875 0)"/>
    </g>
   </g>
   <g id="legend_1">
    <g id="patch_7">
     <path d="M 58.106836 38.216602 
L 78.106836 38.216602 
L 78.106836 31.216602 
L 58.106836 31.216602 
z
" style="fill: #ff7f0e; fill-opacity: 0.15; stroke: #ff7f0e; stroke-opacity: 0.15; stroke-linejoin: miter"/>
    </g>
    <g id="text_20">
     <!-- P10 - P99 Extreme Fan -->
     <g style="fill: #262626" transform="translate(86.106836 38.216602) scale(0.1 -0.1)">
      <defs>
       <path id="ArialMT-33" d="M 494 0 
L 494 4581 
L 2222 4581 
Q 2678 4581 2919 4538 
Q 3256 4481 3484 4323 
Q 3713 4166 3852 3881 
Q 3991 3597 3991 3256 
Q 3991 2672 3619 2267 
Q 3247 1863 2275 1863 
L 1100 1863 
L 1100 0 
L 494 0 
z
M 1100 2403 
L 2284 2403 
Q 2872 2403 3119 2622 
Q 3366 2841 3366 3238 
Q 3366 3525 3220 3729 
Q 3075 3934 2838 4000 
Q 2684 4041 2272 4041 
L 1100 4041 
L 1100 2403 
z
" transform="scale(0.015625)"/>
       <path id="ArialMT-3" transform="scale(0.015625)"/>
       <path id="ArialMT-10" d="M 203 1375 
L 203 1941 
L 1931 1941 
L 1931 1375 
L 203 1375 
z
" transform="scale(0.015625)"/>
       <path id="ArialMT-1c" d="M 350 1059 
L 891 1109 
Q 959 728 1153 556 
Q 1347 384 1650 384 
Q 1909 384 2104 503 
Q 2300 622 2425 820 
Q 2550 1019 2634 1356 
Q 2719 1694 2719 2044 
Q 2719 2081 2716 2156 
Q 2547 1888 2255 1720 
Q 1963 1553 1622 1553 
Q 1053 1553 659 1965 
Q 266 2378 266 3053 
Q 266 3750 677 4175 
Q 1088 4600 1706 4600 
Q 2153 4600 2523 4359 
Q 2894 4119 3086 3673 
Q 3278 3228 3278 2384 
Q 3278 1506 3087 986 
Q 2897 466 2520 194 
Q 2144 -78 1638 -78 
Q 1100 -78 759 220 
Q 419 519 350 1059 
z
M 2653 3081 
Q 2653 3566 2395 3850 
Q 2138 4134 1775 4134 
Q 1400 4134 1122 3828 
Q 844 3522 844 3034 
Q 844 2597 1108 2323 
Q 1372 2050 1759 2050 
Q 2150 2050 2401 2323 
Q 2653 2597 2653 3081 
z
" transform="scale(0.015625)"/>
       <path id="ArialMT-28" d="M 506 0 
L 506 4581 
L 3819 4581 
L 3819 4041 
L 1113 4041 
L 1113 2638 
L 3647 2638 
L 3647 2100 
L 1113 2100 
L 1113 541 
L 3925 541 
L 3925 0 
L 506 0 
z
" transform="scale(0.015625)"/>
       <path id="ArialMT-5b" d="M 47 0 
L 1259 1725 
L 138 3319 
L 841 3319 
L 1350 2541 
Q 1494 2319 1581 2169 
Q 1719 2375 1834 2534 
L 2394 3319 
L 3066 3319 
L 1919 1756 
L 3153 0 
L 2463 0 
L 1781 1031 
L 1600 1309 
L 728 0 
L 47 0 
z
" transform="scale(0.015625)"/>
       <path id="ArialMT-57" d="M 1650 503 
L 1731 6 
Q 1494 -44 1306 -44 
Q 1000 -44 831 53 
Q 663 150 594 308 
Q 525 466 525 972 
L 525 2881 
L 113 2881 
L 113 3319 
L 525 3319 
L 525 4141 
L 1084 4478 
L 1084 3319 
L 1650 3319 
L 1650 2881 
L 1084 2881 
L 1084 941 
Q 1084 700 1114 631 
Q 1144 563 1211 522 
Q 1278 481 1403 481 
Q 1497 481 1650 503 
z
" transform="scale(0.015625)"/>
       <path id="ArialMT-55" d="M 416 0 
L 416 3319 
L 922 3319 
L 922 2816 
Q 1116 3169 1280 3281 
Q 1444 3394 1641 3394 
Q 1925 3394 2219 3213 
L 2025 2691 
Q 1819 2813 1613 2813 
Q 1428 2813 1281 2702 
Q 1134 2591 1072 2394 
Q 978 2094 978 1738 
L 978 0 
L 416 0 
z
" transform="scale(0.015625)"/>
       <path id="ArialMT-48" d="M 2694 1069 
L 3275 997 
Q 3138 488 2766 206 
Q 2394 -75 1816 -75 
Q 1088 -75 661 373 
Q 234 822 234 1631 
Q 234 2469 665 2931 
Q 1097 3394 1784 3394 
Q 2450 3394 2872 2941 
Q 3294 2488 3294 1666 
Q 3294 1616 3291 1516 
L 816 1516 
Q 847 969 1125 678 
Q 1403 388 1819 388 
Q 2128 388 2347 550 
Q 2566 713 2694 1069 
z
M 847 1978 
L 2700 1978 
Q 2663 2397 2488 2606 
Q 2219 2931 1791 2931 
Q 1403 2931 1139 2672 
Q 875 2413 847 1978 
z
" transform="scale(0.015625)"/>
       <path id="ArialMT-29" d="M 525 0 
L 525 4581 
L 3616 4581 
L 3616 4041 
L 1131 4041 
L 1131 2622 
L 3281 2622 
L 3281 2081 
L 1131 2081 
L 1131 0 
L 525 0 
z
" transform="scale(0.015625)"/>
       <path id="ArialMT-44" d="M 2588 409 
Q 2275 144 1986 34 
Q 1697 -75 1366 -75 
Q 819 -75 525 192 
Q 231 459 231 875 
Q 231 1119 342 1320 
Q 453 1522 633 1644 
Q 813 1766 1038 1828 
Q 1203 1872 1538 1913 
Q 2219 1994 2541 2106 
Q 2544 2222 2544 2253 
Q 2544 2597 2384 2738 
Q 2169 2928 1744 2928 
Q 1347 2928 1158 2789 
Q 969 2650 878 2297 
L 328 2372 
Q 403 2725 575 2942 
Q 747 3159 1072 3276 
Q 1397 3394 1825 3394 
Q 2250 3394 2515 3294 
Q 2781 3194 2906 3042 
Q 3031 2891 3081 2659 
Q 3109 2516 3109 2141 
L 3109 1391 
Q 3109 606 3145 398 
Q 3181 191 3288 0 
L 2700 0 
Q 2613 175 2588 409 
z
M 2541 1666 
Q 2234 1541 1622 1453 
Q 1275 1403 1131 1340 
Q 988 1278 909 1158 
Q 831 1038 831 891 
Q 831 666 1001 516 
Q 1172 366 1500 366 
Q 1825 366 2078 508 
Q 2331 650 2450 897 
Q 2541 1088 2541 1459 
L 2541 1666 
z
" transform="scale(0.015625)"/>
       <path id="ArialMT-51" d="M 422 0 
L 422 3319 
L 928 3319 
L 928 2847 
Q 1294 3394 1984 3394 
Q 2284 3394 2536 3286 
Q 2788 3178 2913 3003 
Q 3038 2828 3088 2588 
Q 3119 2431 3119 2041 
L 3119 0 
L 2556 0 
L 2556 2019 
Q 2556 2363 2490 2533 
Q 2425 2703 2258 2804 
Q 2091 2906 1866 2906 
Q 1506 2906 1245 2678 
Q 984 2450 984 1813 
L 984 0 
L 422 0 
z
" transform="scale(0.015625)"/>
      </defs>
      <use xlink:href="#ArialMT-33"/>
      <use xlink:href="#ArialMT-14" transform="translate(66.703125 0)"/>
      <use xlink:href="#ArialMT-13" transform="translate(122.3125 0)"/>
      <use xlink:href="#ArialMT-3" transform="translate(177.921875 0)"/>
      <use xlink:href="#ArialMT-10" transform="translate(205.703125 0)"/>
      <use xlink:href="#ArialMT-3" transform="translate(239 0)"/>
      <use xlink:href="#ArialMT-33" transform="translate(266.78125 0)"/>
      <use xlink:href="#ArialMT-1c" transform="translate(333.484375 0)"/>
      <use xlink:href="#ArialMT-1c" transform="translate(389.09375 0)"/>
      <use xlink:href="#ArialMT-3" transform="translate(444.703125 0)"/>
      <use xlink:href="#ArialMT-28" transform="translate(472.484375 0)"/>
      <use xlink:href="#ArialMT-5b" transform="translate(539.1875 0)"/>
      <use xlink:href="#ArialMT-57" transform="translate(589.1875 0)"/>
      <use xlink:href="#ArialMT-55" transform="translate(616.96875 0)"/>
      <use xlink:href="#ArialMT-48" transform="translate(650.265625 0)"/>
      <use xlink:href="#ArialMT-50" transform="translate(705.875 0)"/>
      <use xlink:href="#ArialMT-48" transform="translate(789.171875 0)"/>
      <use xlink:href="#ArialMT-3" transform="translate(844.78125 0)"/>
      <use xlink:href="#ArialMT-29" transform="translate(872.5625 0)"/>
      <use xlink:href="#ArialMT-44" transform="translate(933.640625 0)"/>
      <use xlink:href="#ArialMT-51" transform="translate(989.25 0)"/>
     </g>
    </g>
    <g id="patch_8">
     <path d="M 58.106836 52.601367 
L 78.106836 52.601367 
L 78.106836 45.601367 
L 58.106836 45.601367 
z
" style="fill: #ff7f0e; fill-opacity: 0.3; stroke: #ff7f0e; stroke-opacity: 0.3; stroke-linejoin: miter"/>
    </g>
    <g id="text_21">
     <!-- P10 - P90 Central Fan -->
     <g style="fill: #262626" transform="translate(86.106836 52.601367) scale(0.1 -0.1)">
      <defs>
       <path id="ArialMT-26" d="M 3763 1606 
L 4369 1453 
Q 4178 706 3683 314 
Q 3188 -78 2472 -78 
Q 1731 -78 1267 223 
Q 803 525 561 1097 
Q 319 1669 319 2325 
Q 319 3041 592 3573 
Q 866 4106 1370 4382 
Q 1875 4659 2481 4659 
Q 3169 4659 3637 4309 
Q 4106 3959 4291 3325 
L 3694 3184 
Q 3534 3684 3231 3912 
Q 2928 4141 2469 4141 
Q 1941 4141 1586 3887 
Q 1231 3634 1087 3207 
Q 944 2781 944 2328 
Q 944 1744 1114 1308 
Q 1284 872 1643 656 
Q 2003 441 2422 441 
Q 2931 441 3284 734 
Q 3638 1028 3763 1606 
z
" transform="scale(0.015625)"/>
       <path id="ArialMT-4f" d="M 409 0 
L 409 4581 
L 972 4581 
L 972 0 
L 409 0 
z
" transform="scale(0.015625)"/>
      </defs>
      <use xlink:href="#ArialMT-33"/>
      <use xlink:href="#ArialMT-14" transform="translate(66.703125 0)"/>
      <use xlink:href="#ArialMT-13" transform="translate(122.3125 0)"/>
      <use xlink:href="#ArialMT-3" transform="translate(177.921875 0)"/>
      <use xlink:href="#ArialMT-10" transform="translate(205.703125 0)"/>
      <use xlink:href="#ArialMT-3" transform="translate(239 0)"/>
      <use xlink:href="#ArialMT-33" transform="translate(266.78125 0)"/>
      <use xlink:href="#ArialMT-1c" transform="translate(333.484375 0)"/>
      <use xlink:href="#ArialMT-13" transform="translate(389.09375 0)"/>
      <use xlink:href="#ArialMT-3" transform="translate(444.703125 0)"/>
      <use xlink:href="#ArialMT-26" transform="translate(472.484375 0)"/>
      <use xlink:href="#ArialMT-48" transform="translate(544.703125 0)"/>
      <use xlink:href="#ArialMT-51" transform="translate(600.3125 0)"/>
      <use xlink:href="#ArialMT-57" transform="translate(655.921875 0)"/>
      <use xlink:href="#ArialMT-55" transform="translate(683.703125 0)"/>
      <use xlink:href="#ArialMT-44" transform="translate(717 0)"/>
      <use xlink:href="#ArialMT-4f" transform="translate(772.609375 0)"/>
      <use xlink:href="#ArialMT-3" transform="translate(794.828125 0)"/>
      <use xlink:href="#ArialMT-29" transform="translate(822.609375 0)"/>
      <use xlink:href="#ArialMT-44" transform="translate(883.6875 0)"/>
      <use xlink:href="#ArialMT-51" transform="translate(939.296875 0)"/>
     </g>
    </g>
    <g id="line2d_34">
     <path d="M 58.106836 63.486133 
L 68.106836 63.486133 
L 78.106836 63.486133 
" style="fill: none; stroke: #d62728; stroke-width: 1.5; stroke-linecap: round"/>
     <g>
      <use xlink:href="#me2942d8f59" x="68.106836" y="63.486133" style="fill: #d62728; stroke: #d62728; stroke-linejoin: miter"/>
     </g>
    </g>
    <g id="text_22">
     <!-- Median Move (P50) -->
     <g style="fill: #262626" transform="translate(86.106836 66.986133) scale(0.1 -0.1)">
      <defs>
       <path id="ArialMT-30" d="M 475 0 
L 475 4581 
L 1388 4581 
L 2472 1338 
Q 2622 884 2691 659 
Q 2769 909 2934 1394 
L 4031 4581 
L 4847 4581 
L 4847 0 
L 4263 0 
L 4263 3834 
L 2931 0 
L 2384 0 
L 1059 3900 
L 1059 0 
L 475 0 
z
" transform="scale(0.015625)"/>
       <path id="ArialMT-47" d="M 2575 0 
L 2575 419 
Q 2259 -75 1647 -75 
Q 1250 -75 917 144 
Q 584 363 401 755 
Q 219 1147 219 1656 
Q 219 2153 384 2558 
Q 550 2963 881 3178 
Q 1213 3394 1622 3394 
Q 1922 3394 2156 3267 
Q 2391 3141 2538 2938 
L 2538 4581 
L 3097 4581 
L 3097 0 
L 2575 0 
z
M 797 1656 
Q 797 1019 1065 703 
Q 1334 388 1700 388 
Q 2069 388 2326 689 
Q 2584 991 2584 1609 
Q 2584 2291 2321 2609 
Q 2059 2928 1675 2928 
Q 1300 2928 1048 2622 
Q 797 2316 797 1656 
z
" transform="scale(0.015625)"/>
       <path id="ArialMT-4c" d="M 425 3934 
L 425 4581 
L 988 4581 
L 988 3934 
L 425 3934 
z
M 425 0 
L 425 3319 
L 988 3319 
L 988 0 
L 425 0 
z
" transform="scale(0.015625)"/>
       <path id="ArialMT-52" d="M 213 1659 
Q 213 2581 725 3025 
Q 1153 3394 1769 3394 
Q 2453 3394 2887 2945 
Q 3322 2497 3322 1706 
Q 3322 1066 3130 698 
Q 2938 331 2570 128 
Q 2203 -75 1769 -75 
Q 1072 -75 642 372 
Q 213 819 213 1659 
z
M 791 1659 
Q 791 1022 1069 705 
Q 1347 388 1769 388 
Q 2188 388 2466 706 
Q 2744 1025 2744 1678 
Q 2744 2294 2464 2611 
Q 2184 2928 1769 2928 
Q 1347 2928 1069 2612 
Q 791 2297 791 1659 
z
" transform="scale(0.015625)"/>
       <path id="ArialMT-59" d="M 1344 0 
L 81 3319 
L 675 3319 
L 1388 1331 
Q 1503 1009 1600 663 
Q 1675 925 1809 1294 
L 2547 3319 
L 3125 3319 
L 1869 0 
L 1344 0 
z
" transform="scale(0.015625)"/>
       <path id="ArialMT-b" d="M 1497 -1347 
Q 1031 -759 709 28 
Q 388 816 388 1659 
Q 388 2403 628 3084 
Q 909 3875 1497 4659 
L 1900 4659 
Q 1522 4009 1400 3731 
Q 1209 3300 1100 2831 
Q 966 2247 966 1656 
Q 966 153 1900 -1347 
L 1497 -1347 
z
" transform="scale(0.015625)"/>
       <path id="ArialMT-c" d="M 791 -1347 
L 388 -1347 
Q 1322 153 1322 1656 
Q 1322 2244 1188 2822 
Q 1081 3291 891 3722 
Q 769 4003 388 4659 
L 791 4659 
Q 1378 3875 1659 3084 
Q 1900 2403 1900 1659 
Q 1900 816 1576 28 
Q 1253 -759 791 -1347 
z
" transform="scale(0.015625)"/>
      </defs>
      <use xlink:href="#ArialMT-30"/>
      <use xlink:href="#ArialMT-48" transform="translate(83.296875 0)"/>
      <use xlink:href="#ArialMT-47" transform="translate(138.90625 0)"/>
      <use xlink:href="#ArialMT-4c" transform="translate(194.515625 0)"/>
      <use xlink:href="#ArialMT-44" transform="translate(216.734375 0)"/>
      <use xlink:href="#ArialMT-51" transform="translate(272.34375 0)"/>
      <use xlink:href="#ArialMT-3" transform="translate(327.953125 0)"/>
      <use xlink:href="#ArialMT-30" transform="translate(355.734375 0)"/>
      <use xlink:href="#ArialMT-52" transform="translate(439.03125 0)"/>
      <use xlink:href="#ArialMT-59" transform="translate(494.640625 0)"/>
      <use xlink:href="#ArialMT-48" transform="translate(544.640625 0)"/>
      <use xlink:href="#ArialMT-3" transform="translate(600.25 0)"/>
      <use xlink:href="#ArialMT-b" transform="translate(628.03125 0)"/>
      <use xlink:href="#ArialMT-33" transform="translate(661.328125 0)"/>
      <use xlink:href="#ArialMT-18" transform="translate(728.03125 0)"/>
      <use xlink:href="#ArialMT-13" transform="translate(783.640625 0)"/>
      <use xlink:href="#ArialMT-c" transform="translate(839.25 0)"/>
     </g>
    </g>
   </g>
  </g>
 </g>
 <defs>
  <clipPath id="p821bd742af">
   <rect x="49.106836" y="21.936328" width="502.2" height="277.2"/>
  </clipPath>
 </defs>
</svg>
